<?xml version="1.0" encoding="UTF-8"?>
<svg width="901px" height="285px" viewBox="0 0 901 285" version="1.1" xmlns="http://www.w3.org/2000/svg" xmlns:xlink="http://www.w3.org/1999/xlink">
    <!-- Generator: Sketch 42 (36781) - http://www.bohemiancoding.com/sketch -->
    <title>design-4</title>
    <desc>Created with Sketch.</desc>
    <defs>
        <rect id="path-1" x="15.5113029" y="13.5" width="254.988697" height="144"></rect>
        <rect id="path-3" x="15.5113029" y="13.5" width="254.988697" height="144"></rect>
        <path d="M2.88002949,6.21290157 C2.88002949,4.27888449 4.45096612,2.71105388 6.38002949,2.71105388 L6.38002949,2.71105388 C8.31302611,2.71105388 9.88002949,4.2774263 9.88002949,6.21290157 L9.88002949,65.2092062 C9.88002949,67.1432233 8.30909285,68.7110539 6.38002949,68.7110539 L6.38002949,68.7110539 C4.44703286,68.7110539 2.88002949,67.1446815 2.88002949,65.2092062 L2.88002949,6.21290157 Z" id="path-5"></path>
        <mask id="mask-6" maskContentUnits="userSpaceOnUse" maskUnits="objectBoundingBox" x="0" y="0" width="7" height="66" fill="white">
            <use xlink:href="#path-5"></use>
        </mask>
        <rect id="path-7" x="0.880029489" y="0.211053877" width="11" height="71" rx="5.5"></rect>
        <mask id="mask-8" maskContentUnits="userSpaceOnUse" maskUnits="objectBoundingBox" x="0" y="0" width="11" height="71" fill="white">
            <use xlink:href="#path-7"></use>
        </mask>
        <path d="M2.88002949,6.21290157 C2.88002949,4.27888449 4.45096612,2.71105388 6.38002949,2.71105388 L6.38002949,2.71105388 C8.31302611,2.71105388 9.88002949,4.2774263 9.88002949,6.21290157 L9.88002949,65.2092062 C9.88002949,67.1432233 8.30909285,68.7110539 6.38002949,68.7110539 L6.38002949,68.7110539 C4.44703286,68.7110539 2.88002949,67.1446815 2.88002949,65.2092062 L2.88002949,6.21290157 Z" id="path-9"></path>
        <mask id="mask-10" maskContentUnits="userSpaceOnUse" maskUnits="objectBoundingBox" x="0" y="0" width="7" height="66" fill="white">
            <use xlink:href="#path-9"></use>
        </mask>
        <rect id="path-11" x="0.880029489" y="0.211053877" width="11" height="71" rx="5.5"></rect>
        <mask id="mask-12" maskContentUnits="userSpaceOnUse" maskUnits="objectBoundingBox" x="0" y="0" width="11" height="71" fill="white">
            <use xlink:href="#path-11"></use>
        </mask>
        <rect id="path-13" x="15.5113029" y="13.5" width="254.988697" height="144"></rect>
        <path d="M2.88002949,6.20571515 C2.88002949,4.27566702 4.45096612,2.71105388 6.38002949,2.71105388 L6.38002949,2.71105388 C8.31302611,2.71105388 9.88002949,4.28275512 9.88002949,6.20571515 L9.88002949,33.2163926 C9.88002949,35.1464407 8.30909285,36.7110539 6.38002949,36.7110539 L6.38002949,36.7110539 C4.44703286,36.7110539 2.88002949,35.1393526 2.88002949,33.2163926 L2.88002949,6.20571515 Z" id="path-15"></path>
        <mask id="mask-16" maskContentUnits="userSpaceOnUse" maskUnits="objectBoundingBox" x="0" y="0" width="7" height="34" fill="white">
            <use xlink:href="#path-15"></use>
        </mask>
        <path d="M0.880029489,5.71608452 C0.880029489,2.67574005 3.3486442,0.211053877 6.38002949,0.211053877 L6.38002949,0.211053877 C9.41759561,0.211053877 11.8800295,2.68026545 11.8800295,5.71608452 L11.8800295,33.7060232 C11.8800295,36.7463677 9.41141478,39.2110539 6.38002949,39.2110539 L6.38002949,39.2110539 C3.34246337,39.2110539 0.880029489,36.7418423 0.880029489,33.7060232 L0.880029489,5.71608452 Z" id="path-17"></path>
        <mask id="mask-18" maskContentUnits="userSpaceOnUse" maskUnits="objectBoundingBox" x="0" y="0" width="11" height="39" fill="white">
            <use xlink:href="#path-17"></use>
        </mask>
        <path d="M2.88002949,6.20571515 C2.88002949,4.27566702 4.45096612,2.71105388 6.38002949,2.71105388 L6.38002949,2.71105388 C8.31302611,2.71105388 9.88002949,4.28275512 9.88002949,6.20571515 L9.88002949,33.2163926 C9.88002949,35.1464407 8.30909285,36.7110539 6.38002949,36.7110539 L6.38002949,36.7110539 C4.44703286,36.7110539 2.88002949,35.1393526 2.88002949,33.2163926 L2.88002949,6.20571515 Z" id="path-19"></path>
        <mask id="mask-20" maskContentUnits="userSpaceOnUse" maskUnits="objectBoundingBox" x="0" y="0" width="7" height="34" fill="white">
            <use xlink:href="#path-19"></use>
        </mask>
        <path d="M0.880029489,5.71608452 C0.880029489,2.67574005 3.3486442,0.211053877 6.38002949,0.211053877 L6.38002949,0.211053877 C9.41759561,0.211053877 11.8800295,2.68026545 11.8800295,5.71608452 L11.8800295,33.7060232 C11.8800295,36.7463677 9.41141478,39.2110539 6.38002949,39.2110539 L6.38002949,39.2110539 C3.34246337,39.2110539 0.880029489,36.7418423 0.880029489,33.7060232 L0.880029489,5.71608452 Z" id="path-21"></path>
        <mask id="mask-22" maskContentUnits="userSpaceOnUse" maskUnits="objectBoundingBox" x="0" y="0" width="11" height="39" fill="white">
            <use xlink:href="#path-21"></use>
        </mask>
        <path d="M2.88002949,6.20571515 C2.88002949,4.27566702 4.45096612,2.71105388 6.38002949,2.71105388 L6.38002949,2.71105388 C8.31302611,2.71105388 9.88002949,4.28275512 9.88002949,6.20571515 L9.88002949,33.2163926 C9.88002949,35.1464407 8.30909285,36.7110539 6.38002949,36.7110539 L6.38002949,36.7110539 C4.44703286,36.7110539 2.88002949,35.1393526 2.88002949,33.2163926 L2.88002949,6.20571515 Z" id="path-23"></path>
        <mask id="mask-24" maskContentUnits="userSpaceOnUse" maskUnits="objectBoundingBox" x="0" y="0" width="7" height="34" fill="white">
            <use xlink:href="#path-23"></use>
        </mask>
        <path d="M0.880029489,5.71608452 C0.880029489,2.67574005 3.3486442,0.211053877 6.38002949,0.211053877 L6.38002949,0.211053877 C9.41759561,0.211053877 11.8800295,2.68026545 11.8800295,5.71608452 L11.8800295,33.7060232 C11.8800295,36.7463677 9.41141478,39.2110539 6.38002949,39.2110539 L6.38002949,39.2110539 C3.34246337,39.2110539 0.880029489,36.7418423 0.880029489,33.7060232 L0.880029489,5.71608452 Z" id="path-25"></path>
        <mask id="mask-26" maskContentUnits="userSpaceOnUse" maskUnits="objectBoundingBox" x="0" y="0" width="11" height="39" fill="white">
            <use xlink:href="#path-25"></use>
        </mask>
        <path d="M2.88002949,6.20571515 C2.88002949,4.27566702 4.45096612,2.71105388 6.38002949,2.71105388 L6.38002949,2.71105388 C8.31302611,2.71105388 9.88002949,4.28275512 9.88002949,6.20571515 L9.88002949,33.2163926 C9.88002949,35.1464407 8.30909285,36.7110539 6.38002949,36.7110539 L6.38002949,36.7110539 C4.44703286,36.7110539 2.88002949,35.1393526 2.88002949,33.2163926 L2.88002949,6.20571515 Z" id="path-27"></path>
        <mask id="mask-28" maskContentUnits="userSpaceOnUse" maskUnits="objectBoundingBox" x="0" y="0" width="7" height="34" fill="white">
            <use xlink:href="#path-27"></use>
        </mask>
        <path d="M0.880029489,5.71608452 C0.880029489,2.67574005 3.3486442,0.211053877 6.38002949,0.211053877 L6.38002949,0.211053877 C9.41759561,0.211053877 11.8800295,2.68026545 11.8800295,5.71608452 L11.8800295,33.7060232 C11.8800295,36.7463677 9.41141478,39.2110539 6.38002949,39.2110539 L6.38002949,39.2110539 C3.34246337,39.2110539 0.880029489,36.7418423 0.880029489,33.7060232 L0.880029489,5.71608452 Z" id="path-29"></path>
        <mask id="mask-30" maskContentUnits="userSpaceOnUse" maskUnits="objectBoundingBox" x="0" y="0" width="11" height="39" fill="white">
            <use xlink:href="#path-29"></use>
        </mask>
        <rect id="path-31" x="0" y="0" width="48" height="46" rx="5"></rect>
        <mask id="mask-32" maskContentUnits="userSpaceOnUse" maskUnits="objectBoundingBox" x="0" y="0" width="48" height="46" fill="white">
            <use xlink:href="#path-31"></use>
        </mask>
        <rect id="path-33" x="0.190243902" y="0" width="48" height="46" rx="5"></rect>
        <mask id="mask-34" maskContentUnits="userSpaceOnUse" maskUnits="objectBoundingBox" x="0" y="0" width="48" height="46" fill="white">
            <use xlink:href="#path-33"></use>
        </mask>
        <rect id="path-35" x="0.380487805" y="0" width="48" height="46" rx="5"></rect>
        <mask id="mask-36" maskContentUnits="userSpaceOnUse" maskUnits="objectBoundingBox" x="0" y="0" width="48" height="46" fill="white">
            <use xlink:href="#path-35"></use>
        </mask>
        <rect id="path-37" x="0.380487805" y="0" width="48" height="46" rx="5"></rect>
        <mask id="mask-38" maskContentUnits="userSpaceOnUse" maskUnits="objectBoundingBox" x="0" y="0" width="48" height="46" fill="white">
            <use xlink:href="#path-37"></use>
        </mask>
        <rect id="path-39" x="0" y="0" width="48" height="46" rx="5"></rect>
        <mask id="mask-40" maskContentUnits="userSpaceOnUse" maskUnits="objectBoundingBox" x="0" y="0" width="48" height="46" fill="white">
            <use xlink:href="#path-39"></use>
        </mask>
        <rect id="path-41" x="0.380487805" y="0" width="48" height="46" rx="5"></rect>
        <mask id="mask-42" maskContentUnits="userSpaceOnUse" maskUnits="objectBoundingBox" x="0" y="0" width="48" height="46" fill="white">
            <use xlink:href="#path-41"></use>
        </mask>
        <rect id="path-43" x="0.380487805" y="0" width="48" height="46" rx="5"></rect>
        <mask id="mask-44" maskContentUnits="userSpaceOnUse" maskUnits="objectBoundingBox" x="0" y="0" width="48" height="46" fill="white">
            <use xlink:href="#path-43"></use>
        </mask>
        <rect id="path-45" x="0.380487805" y="0" width="48" height="46" rx="5"></rect>
        <mask id="mask-46" maskContentUnits="userSpaceOnUse" maskUnits="objectBoundingBox" x="0" y="0" width="48" height="46" fill="white">
            <use xlink:href="#path-45"></use>
        </mask>
        <rect id="path-47" x="0.380487805" y="0" width="48" height="46" rx="5"></rect>
        <mask id="mask-48" maskContentUnits="userSpaceOnUse" maskUnits="objectBoundingBox" x="0" y="0" width="48" height="46" fill="white">
            <use xlink:href="#path-47"></use>
        </mask>
        <rect id="path-49" x="0" y="0" width="48" height="46" rx="5"></rect>
        <mask id="mask-50" maskContentUnits="userSpaceOnUse" maskUnits="objectBoundingBox" x="0" y="0" width="48" height="46" fill="white">
            <use xlink:href="#path-49"></use>
        </mask>
        <rect id="path-51" x="0" y="0" width="48" height="46" rx="5"></rect>
        <mask id="mask-52" maskContentUnits="userSpaceOnUse" maskUnits="objectBoundingBox" x="0" y="0" width="48" height="46" fill="white">
            <use xlink:href="#path-51"></use>
        </mask>
        <rect id="path-53" x="60" y="0" width="48" height="46" rx="5"></rect>
        <mask id="mask-54" maskContentUnits="userSpaceOnUse" maskUnits="objectBoundingBox" x="0" y="0" width="48" height="46" fill="white">
            <use xlink:href="#path-53"></use>
        </mask>
        <path d="M120,25 L168,25 L168,40.9966569 C168,43.759927 165.76521,46 162.998997,46 L125.001003,46 C122.239025,46 120,43.7526321 120,40.9966569 L120,25 Z" id="path-55"></path>
        <mask id="mask-56" maskContentUnits="userSpaceOnUse" maskUnits="objectBoundingBox" x="0" y="0" width="48" height="21" fill="white">
            <use xlink:href="#path-55"></use>
        </mask>
        <path d="M120,5.0033431 C120,2.24007301 122.23479,0 125.001003,0 L162.998997,0 C165.760975,0 168,2.24736786 168,5.0033431 L168,21 L120,21 L120,5.0033431 Z" id="path-57"></path>
        <mask id="mask-58" maskContentUnits="userSpaceOnUse" maskUnits="objectBoundingBox" x="0" y="0" width="48" height="21" fill="white">
            <use xlink:href="#path-57"></use>
        </mask>
    </defs>
    <g id="Page-1" stroke="none" stroke-width="1" fill="none" fill-rule="evenodd">
        <g id="Design-&amp;-Homepage" transform="translate(-150.000000, -2149.000000)">
            <g id="design-4" transform="translate(151.000000, 2150.000000)">
                <g>
                    <g id="Group-5">
                        <g id="iMac">
                            <path d="M277.008032,0 C281.974159,0 286,4.03747026 286,8.99786844 L286,162.002132 C286,166.971517 281.970696,171 277.008032,171 L8.99196777,171 C4.0258411,171 3.55729109e-66,166.96253 3.44558522e-66,162.002132 L0,8.99786844 C-1.11908263e-67,4.02848292 4.02930396,0 8.99196777,0 L277.008032,0 Z" id="Border" stroke="#3A99D8" stroke-width="2"></path>
                            <mask id="mask-2" fill="white">
                                <use xlink:href="#path-1"></use>
                            </mask>
                            <use id="Screen" stroke="#3A99D8" xlink:href="#path-1"></use>
                        </g>
                        <path d="M19,17 L141,17 L141,84 L19,84 L19,17 Z M45,28 C46.6568542,28 48,26.6568542 48,25 C48,23.3431458 46.6568542,22 45,22 C43.3431458,22 42,23.3431458 42,25 C42,26.6568542 43.3431458,28 45,28 Z M36,28 C37.6568542,28 39,26.6568542 39,25 C39,23.3431458 37.6568542,22 36,22 C34.3431458,22 33,23.3431458 33,25 C33,26.6568542 34.3431458,28 36,28 Z M27,28 C28.6568542,28 30,26.6568542 30,25 C30,23.3431458 28.6568542,22 27,22 C25.3431458,22 24,23.3431458 24,25 C24,26.6568542 25.3431458,28 27,28 Z" id="Rectangle-94-Copy-2" fill="#3A99D8" opacity="0.35"></path>
                        <path d="M144,17 L267,17 L267,84 L144,84 L144,17 Z M170,28 C171.656854,28 173,26.6568542 173,25 C173,23.3431458 171.656854,22 170,22 C168.343146,22 167,23.3431458 167,25 C167,26.6568542 168.343146,28 170,28 Z M161,28 C162.656854,28 164,26.6568542 164,25 C164,23.3431458 162.656854,22 161,22 C159.343146,22 158,23.3431458 158,25 C158,26.6568542 159.343146,28 161,28 Z M152,28 C153.656854,28 155,26.6568542 155,25 C155,23.3431458 153.656854,22 152,22 C150.343146,22 149,23.3431458 149,25 C149,26.6568542 150.343146,28 152,28 Z" id="Rectangle-94-Copy-2" fill="#3A99D8" opacity="0.35"></path>
                        <path d="M19,87 L141,87 L141,154 L19,154 L19,87 Z M45,98 C46.6568542,98 48,96.6568542 48,95 C48,93.3431458 46.6568542,92 45,92 C43.3431458,92 42,93.3431458 42,95 C42,96.6568542 43.3431458,98 45,98 Z M36,98 C37.6568542,98 39,96.6568542 39,95 C39,93.3431458 37.6568542,92 36,92 C34.3431458,92 33,93.3431458 33,95 C33,96.6568542 34.3431458,98 36,98 Z M27,98 C28.6568542,98 30,96.6568542 30,95 C30,93.3431458 28.6568542,92 27,92 C25.3431458,92 24,93.3431458 24,95 C24,96.6568542 25.3431458,98 27,98 Z" id="Rectangle-94-Copy-2" fill="#3A99D8" opacity="0.35"></path>
                        <path d="M144,87 L267,87 L267,154 L144,154 L144,87 Z M170,98 C171.656854,98 173,96.6568542 173,95 C173,93.3431458 171.656854,92 170,92 C168.343146,92 167,93.3431458 167,95 C167,96.6568542 168.343146,98 170,98 Z M161,98 C162.656854,98 164,96.6568542 164,95 C164,93.3431458 162.656854,92 161,92 C159.343146,92 158,93.3431458 158,95 C158,96.6568542 159.343146,98 161,98 Z M152,98 C153.656854,98 155,96.6568542 155,95 C155,93.3431458 153.656854,92 152,92 C150.343146,92 149,93.3431458 149,95 C149,96.6568542 150.343146,98 152,98 Z" id="Rectangle-94-Copy-2" fill="#3A99D8" opacity="0.35"></path>
                        <g id="upper-left-corner-pulse" transform="translate(7.000000, 5.000000)" stroke="#3A99D8">
                            <ellipse id="Oval-94" fill="#3A99D8" cx="8.38465553" cy="8.38803015" rx="4.19232777" ry="4.19401508"></ellipse>
                            <ellipse id="Oval-95" opacity="0.8" cx="8.38465553" cy="8.38803015" rx="6.28849165" ry="6.29102261"></ellipse>
                            <ellipse id="Oval-96" opacity="0.6" cx="8.38465553" cy="8.38803015" rx="8.38465553" ry="8.38803015"></ellipse>
                        </g>
                        <g id="upper-left-corner-pulse" transform="translate(262.000000, 5.000000)" stroke="#3A99D8">
                            <ellipse id="Oval-94" fill="#3A99D8" cx="8.38465553" cy="8.38803015" rx="4.19232777" ry="4.19401508"></ellipse>
                            <ellipse id="Oval-95" opacity="0.8" cx="8.38465553" cy="8.38803015" rx="6.28849165" ry="6.29102261"></ellipse>
                            <ellipse id="Oval-96" opacity="0.6" cx="8.38465553" cy="8.38803015" rx="8.38465553" ry="8.38803015"></ellipse>
                        </g>
                        <g id="upper-left-corner-pulse" transform="translate(262.000000, 149.000000)" stroke="#3A99D8">
                            <ellipse id="Oval-94" fill="#3A99D8" cx="8.38465553" cy="8.38803015" rx="4.19232777" ry="4.19401508"></ellipse>
                            <ellipse id="Oval-95" opacity="0.8" cx="8.38465553" cy="8.38803015" rx="6.28849165" ry="6.29102261"></ellipse>
                            <ellipse id="Oval-96" opacity="0.6" cx="8.38465553" cy="8.38803015" rx="8.38465553" ry="8.38803015"></ellipse>
                        </g>
                        <g id="upper-left-corner-pulse" transform="translate(7.000000, 149.000000)" stroke="#3A99D8">
                            <ellipse id="Oval-94" fill="#3A99D8" cx="8.38465553" cy="8.38803015" rx="4.19232777" ry="4.19401508"></ellipse>
                            <ellipse id="Oval-95" opacity="0.8" cx="8.38465553" cy="8.38803015" rx="6.28849165" ry="6.29102261"></ellipse>
                            <ellipse id="Oval-96" opacity="0.6" cx="8.38465553" cy="8.38803015" rx="8.38465553" ry="8.38803015"></ellipse>
                        </g>
                    </g>
                    <g id="Group-4" transform="translate(307.000000, 0.000000)">
                        <g id="iMac">
                            <path d="M277.008032,0 C281.974159,0 286,4.03747026 286,8.99786844 L286,162.002132 C286,166.971517 281.970696,171 277.008032,171 L8.99196777,171 C4.0258411,171 3.55729109e-66,166.96253 3.44558522e-66,162.002132 L0,8.99786844 C-1.11908263e-67,4.02848292 4.02930396,0 8.99196777,0 L277.008032,0 Z" id="Border" stroke="#3A99D8" stroke-width="2"></path>
                            <mask id="mask-4" fill="white">
                                <use xlink:href="#path-3"></use>
                            </mask>
                            <use id="Screen" stroke="#3A99D8" xlink:href="#path-3"></use>
                        </g>
                        <path d="M19,17 L141,17 L141,154 L19,154 L19,17 Z M45,28 C46.6568542,28 48,26.6568542 48,25 C48,23.3431458 46.6568542,22 45,22 C43.3431458,22 42,23.3431458 42,25 C42,26.6568542 43.3431458,28 45,28 Z M36,28 C37.6568542,28 39,26.6568542 39,25 C39,23.3431458 37.6568542,22 36,22 C34.3431458,22 33,23.3431458 33,25 C33,26.6568542 34.3431458,28 36,28 Z M27,28 C28.6568542,28 30,26.6568542 30,25 C30,23.3431458 28.6568542,22 27,22 C25.3431458,22 24,23.3431458 24,25 C24,26.6568542 25.3431458,28 27,28 Z" id="Rectangle-94-Copy-2" fill="#3A99D8" opacity="0.35"></path>
                        <path d="M144,17 L267,17 L267,154 L144,154 L144,17 Z M170,28 C171.656854,28 173,26.6568542 173,25 C173,23.3431458 171.656854,22 170,22 C168.343146,22 167,23.3431458 167,25 C167,26.6568542 168.343146,28 170,28 Z M161,28 C162.656854,28 164,26.6568542 164,25 C164,23.3431458 162.656854,22 161,22 C159.343146,22 158,23.3431458 158,25 C158,26.6568542 159.343146,28 161,28 Z M152,28 C153.656854,28 155,26.6568542 155,25 C155,23.3431458 153.656854,22 152,22 C150.343146,22 149,23.3431458 149,25 C149,26.6568542 150.343146,28 152,28 Z" id="Rectangle-94-Copy-2" fill="#3A99D8" opacity="0.35"></path>
                        <g id="left-edge-pulse" transform="translate(9.119971, 48.788946)">
                            <rect id="Rectangle-51" fill="#3A99D8" x="4.88002949" y="5.21105388" width="3" height="61" rx="1.5"></rect>
                            <use id="Rectangle-52" stroke="#3A99D8" mask="url(#mask-6)" stroke-width="2" opacity="0.8" xlink:href="#path-5"></use>
                            <use id="Rectangle-53" stroke="#3A99D8" mask="url(#mask-8)" stroke-width="2" opacity="0.6" xlink:href="#path-7"></use>
                        </g>
                        <g id="left-edge-pulse" transform="translate(264.119971, 48.788946)">
                            <rect id="Rectangle-51" fill="#3A99D8" x="4.88002949" y="5.21105388" width="3" height="61" rx="1.5"></rect>
                            <use id="Rectangle-52" stroke="#3A99D8" mask="url(#mask-10)" stroke-width="2" opacity="0.8" xlink:href="#path-9"></use>
                            <use id="Rectangle-53" stroke="#3A99D8" mask="url(#mask-12)" stroke-width="2" opacity="0.6" xlink:href="#path-11"></use>
                        </g>
                    </g>
                    <g id="Group-3" transform="translate(613.000000, 0.000000)">
                        <g id="iMac">
                            <path d="M277.008032,0 C281.974159,0 286,4.03747026 286,8.99786844 L286,162.002132 C286,166.971517 281.970696,171 277.008032,171 L8.99196777,171 C4.0258411,171 3.55729109e-66,166.96253 3.44558522e-66,162.002132 L0,8.99786844 C-1.11908263e-67,4.02848292 4.02930396,0 8.99196777,0 L277.008032,0 Z" id="Border" stroke="#3A99D8" stroke-width="2"></path>
                            <mask id="mask-14" fill="white">
                                <use xlink:href="#path-13"></use>
                            </mask>
                            <use id="Screen" stroke="#3A99D8" xlink:href="#path-13"></use>
                        </g>
                        <path d="M19,17 L267,17 L267,84 L19,84 L19,17 Z M45,28 C46.6568542,28 48,26.6568542 48,25 C48,23.3431458 46.6568542,22 45,22 C43.3431458,22 42,23.3431458 42,25 C42,26.6568542 43.3431458,28 45,28 Z M36,28 C37.6568542,28 39,26.6568542 39,25 C39,23.3431458 37.6568542,22 36,22 C34.3431458,22 33,23.3431458 33,25 C33,26.6568542 34.3431458,28 36,28 Z M27,28 C28.6568542,28 30,26.6568542 30,25 C30,23.3431458 28.6568542,22 27,22 C25.3431458,22 24,23.3431458 24,25 C24,26.6568542 25.3431458,28 27,28 Z" id="Rectangle-94-Copy-2" fill="#3A99D8" opacity="0.35"></path>
                        <path d="M19,87 L267,87 L267,154 L19,154 L19,87 Z M45,98 C46.6568542,98 48,96.6568542 48,95 C48,93.3431458 46.6568542,92 45,92 C43.3431458,92 42,93.3431458 42,95 C42,96.6568542 43.3431458,98 45,98 Z M36,98 C37.6568542,98 39,96.6568542 39,95 C39,93.3431458 37.6568542,92 36,92 C34.3431458,92 33,93.3431458 33,95 C33,96.6568542 34.3431458,98 36,98 Z M27,98 C28.6568542,98 30,96.6568542 30,95 C30,93.3431458 28.6568542,92 27,92 C25.3431458,92 24,93.3431458 24,95 C24,96.6568542 25.3431458,98 27,98 Z" id="Rectangle-94-Copy-2" fill="#3A99D8" opacity="0.35"></path>
                        <g id="left-edge-pulse" transform="translate(9.119971, 16.788946)">
                            <rect id="Rectangle-51" fill="#3A99D8" x="4.88002949" y="5.21105388" width="3" height="29" rx="1.5"></rect>
                            <use id="Rectangle-52" stroke="#3A99D8" mask="url(#mask-16)" stroke-width="2" opacity="0.8" xlink:href="#path-15"></use>
                            <use id="Rectangle-53" stroke="#3A99D8" mask="url(#mask-18)" stroke-width="2" opacity="0.6" xlink:href="#path-17"></use>
                        </g>
                        <g id="left-edge-pulse" transform="translate(9.119971, 114.788946)">
                            <rect id="Rectangle-51" fill="#3A99D8" x="4.88002949" y="5.21105388" width="3" height="29" rx="1.5"></rect>
                            <use id="Rectangle-52" stroke="#3A99D8" mask="url(#mask-20)" stroke-width="2" opacity="0.8" xlink:href="#path-19"></use>
                            <use id="Rectangle-53" stroke="#3A99D8" mask="url(#mask-22)" stroke-width="2" opacity="0.6" xlink:href="#path-21"></use>
                        </g>
                        <g id="left-edge-pulse" transform="translate(264.119971, 16.788946)">
                            <rect id="Rectangle-51" fill="#3A99D8" x="4.88002949" y="5.21105388" width="3" height="29" rx="1.5"></rect>
                            <use id="Rectangle-52" stroke="#3A99D8" mask="url(#mask-24)" stroke-width="2" opacity="0.8" xlink:href="#path-23"></use>
                            <use id="Rectangle-53" stroke="#3A99D8" mask="url(#mask-26)" stroke-width="2" opacity="0.6" xlink:href="#path-25"></use>
                        </g>
                        <g id="left-edge-pulse" transform="translate(264.119971, 114.788946)">
                            <rect id="Rectangle-51" fill="#3A99D8" x="4.88002949" y="5.21105388" width="3" height="29" rx="1.5"></rect>
                            <use id="Rectangle-52" stroke="#3A99D8" mask="url(#mask-28)" stroke-width="2" opacity="0.8" xlink:href="#path-27"></use>
                            <use id="Rectangle-53" stroke="#3A99D8" mask="url(#mask-30)" stroke-width="2" opacity="0.6" xlink:href="#path-29"></use>
                        </g>
                    </g>
                </g>
                <g id="shortcuts" transform="translate(340.000000, 213.000000)">
                    <polygon id="+" fill="#3A99D8" points="54.9527391 23.4241536 56.7691454 23.4241536 56.7691454 21.7298177 54.9527391 21.7298177 54.9527391 19.8499349 53.1998095 19.8499349 53.1998095 21.7298177 51.3834032 21.7298177 51.3834032 23.4241536 53.1998095 23.4241536 53.1998095 25.3186849 54.9527391 25.3186849"></polygon>
                    <polygon id="+-copy" fill="#3A99D8" points="114.762495 23.4241536 116.578901 23.4241536 116.578901 21.7298177 114.762495 21.7298177 114.762495 19.8499349 113.009566 19.8499349 113.009566 21.7298177 111.193159 21.7298177 111.193159 23.4241536 113.009566 23.4241536 113.009566 25.3186849 114.762495 25.3186849"></polygon>
                    <use id="Rectangle" stroke-opacity="0.5" stroke="#3A99D8" mask="url(#mask-32)" stroke-width="2" xlink:href="#path-31"></use>
                    <path d="M9.69678184,35.3570964 C9.69678184,36.773112 10.4780318,37.7545573 11.8842818,37.7545573 C13.129399,37.7545573 13.9008834,37.0172526 13.9301803,36.1676432 L12.9877975,36.1676432 C12.8999068,36.5582682 12.5776412,36.9000651 11.9038131,36.9000651 C11.1274459,36.9000651 10.68311,36.2457682 10.68311,35.3619792 L10.68311,34.8297526 C10.68311,33.9557292 11.0639693,33.2526042 11.9038131,33.2526042 C12.55811,33.2526042 12.9096725,33.7164714 12.9536178,34.0875651 L13.8960006,34.0875651 C13.886235,33.2330729 13.1733443,32.4322917 11.8842818,32.4322917 C10.4780318,32.4322917 9.69678184,33.4479167 9.69678184,34.8053385 L9.69678184,35.3570964 Z M17.2830174,32.4322917 C18.8113377,32.4322917 19.5388768,33.4479167 19.5388768,34.8883464 L19.5388768,35.2838542 C19.5388768,36.7535807 18.8113377,37.7545573 17.2830174,37.7545573 C15.7546971,37.7545573 15.0222752,36.7682292 15.0222752,35.2838542 L15.0222752,34.8932292 C15.0222752,33.491862 15.7546971,32.4322917 17.2830174,32.4322917 Z M17.2830174,33.2428385 C16.3113377,33.2428385 16.0086034,34.0533854 16.0086034,34.9518229 L16.0086034,35.2301432 C16.0086034,36.1383464 16.3064549,36.9342448 17.2830174,36.9342448 C18.2595799,36.9342448 18.5427831,36.1383464 18.5427831,35.2301432 L18.5427831,34.9518229 C18.5427831,34.0533854 18.2546971,33.2428385 17.2830174,33.2428385 Z M20.963003,37.6666667 L21.9444483,37.6666667 L21.9444483,34.6246745 C21.9444483,33.7604167 22.3839015,33.3063151 23.1309718,33.3063151 C23.8731593,33.3063151 24.2881983,33.7067057 24.2881983,34.5904948 L24.2881983,37.6666667 L25.2794093,37.6666667 L25.2794093,34.2535807 C25.2794093,33.0670573 24.4737452,32.4371745 23.4483546,32.4371745 C22.6719874,32.4371745 22.1544093,32.8229167 21.9688624,33.2184245 L21.9346827,33.2184245 L21.9346827,32.5201823 L20.963003,32.5201823 L20.963003,37.6666667 Z M27.1820511,32.5397135 L26.4642777,32.5397135 L26.4642777,33.335612 L27.1722855,33.335612 L27.1722855,36.2213542 C27.1722855,37.2467448 27.4799027,37.7057292 28.7152543,37.7057292 C28.9203324,37.7057292 29.1107621,37.6861979 29.1937699,37.6715495 L29.1937699,36.9049479 C29.1302933,36.9098307 29.0521683,36.9147135 28.9593949,36.9147135 C28.3588089,36.9147135 28.1537308,36.7584635 28.1537308,36.172526 L28.1537308,33.335612 L29.164473,33.335612 L29.164473,32.5397135 L28.1537308,32.5397135 L28.1537308,31.250651 L27.1820511,31.250651 L27.1820511,32.5397135 Z M30.5641852,37.6666667 L31.5602789,37.6666667 L31.5602789,34.5416667 C31.5602789,33.8483073 31.8483649,33.3209635 32.7321539,33.3209635 C32.9030524,33.3209635 33.0837164,33.3307292 33.171607,33.3502604 L33.171607,32.4664714 C33.0739508,32.4518229 32.9567633,32.4420573 32.8298102,32.4420573 C31.9802008,32.4420573 31.7214117,32.8424479 31.5798102,33.1549479 L31.5456305,33.1549479 L31.5456305,32.5201823 L30.5641852,32.5201823 L30.5641852,37.6666667 Z M36.2607723,32.4322917 C37.7890926,32.4322917 38.5166317,33.4479167 38.5166317,34.8883464 L38.5166317,35.2838542 C38.5166317,36.7535807 37.7890926,37.7545573 36.2607723,37.7545573 C34.732452,37.7545573 34.0000301,36.7682292 34.0000301,35.2838542 L34.0000301,34.8932292 C34.0000301,33.491862 34.732452,32.4322917 36.2607723,32.4322917 Z M36.2607723,33.2428385 C35.2890926,33.2428385 34.9863583,34.0533854 34.9863583,34.9518229 L34.9863583,35.2301432 C34.9863583,36.1383464 35.2842098,36.9342448 36.2607723,36.9342448 C37.2373348,36.9342448 37.520538,36.1383464 37.520538,35.2301432 L37.520538,34.9518229 C37.520538,34.0533854 37.232452,33.2428385 36.2607723,33.2428385 Z M39.9749376,37.6666667 L40.9563829,37.6666667 L40.9563829,30.6500651 L39.9749376,30.6500651 L39.9749376,37.6666667 Z" id="control" fill="#3A99D8"></path>
                    <g id="option-key" transform="translate(59.809756, 0.000000)">
                        <use id="Rectangle" stroke-opacity="0.5" stroke="#3A99D8" mask="url(#mask-34)" stroke-width="2" xlink:href="#path-33"></use>
                        <path d="M15.5996157,32.765625 C17.127936,32.765625 17.8554751,33.78125 17.8554751,35.2216797 L17.8554751,35.6171875 C17.8554751,37.0869141 17.127936,38.0878906 15.5996157,38.0878906 C14.0712954,38.0878906 13.3388735,37.1015625 13.3388735,35.6171875 L13.3388735,35.2265625 C13.3388735,33.8251953 14.0712954,32.765625 15.5996157,32.765625 Z M15.5996157,33.5761719 C14.627936,33.5761719 14.3252016,34.3867188 14.3252016,35.2851562 L14.3252016,35.5634766 C14.3252016,36.4716797 14.6230532,37.2675781 15.5996157,37.2675781 C16.5761782,37.2675781 16.8593813,36.4716797 16.8593813,35.5634766 L16.8593813,35.2851562 C16.8593813,34.3867188 16.5712954,33.5761719 15.5996157,33.5761719 Z M21.7893669,38.078125 C20.9837029,38.078125 20.5247185,37.7167969 20.3049919,37.296875 L20.2708122,37.296875 L20.2708122,39.7675781 L19.2844841,39.7675781 L19.2844841,32.8486328 L20.2366325,32.8486328 L20.2366325,33.5761719 L20.2708122,33.5761719 C20.4758904,33.1123047 20.9983513,32.7753906 21.8186638,32.7753906 C22.9758904,32.7753906 23.7717888,33.6201172 23.7717888,35.0947266 L23.7717888,35.7636719 C23.7717888,37.2333984 22.985656,38.078125 21.7893669,38.078125 Z M21.5452263,37.2480469 C22.2678825,37.2480469 22.775695,36.7207031 22.775695,35.65625 L22.775695,35.1923828 C22.775695,34.1572266 22.3020622,33.5957031 21.525695,33.5957031 C20.744445,33.5957031 20.2708122,34.2158203 20.2708122,35.1191406 L20.2708122,35.7001953 C20.2708122,36.5498047 20.7346794,37.2480469 21.5452263,37.2480469 Z M25.4595869,32.8730469 L24.7418135,32.8730469 L24.7418135,33.6689453 L25.4498213,33.6689453 L25.4498213,36.5546875 C25.4498213,37.5800781 25.7574385,38.0390625 26.99279,38.0390625 C27.1978681,38.0390625 27.3882978,38.0195312 27.4713056,38.0048828 L27.4713056,37.2382812 C27.4078291,37.2431641 27.3297041,37.2480469 27.2369306,37.2480469 C26.6363447,37.2480469 26.4312666,37.0917969 26.4312666,36.5058594 L26.4312666,33.6689453 L27.4420088,33.6689453 L27.4420088,32.8730469 L26.4312666,32.8730469 L26.4312666,31.5839844 L25.4595869,31.5839844 L25.4595869,32.8730469 Z M28.8856662,38 L29.8671116,38 L29.8671116,32.8535156 L28.8856662,32.8535156 L28.8856662,38 Z M28.7635959,31.59375 C28.7635959,31.9208984 29.022385,32.1650391 29.3690647,32.1650391 C29.7401584,32.1650391 29.9891819,31.9208984 29.9891819,31.59375 C29.9891819,31.2666016 29.7352756,31.0273438 29.3690647,31.0273438 C29.022385,31.0273438 28.7635959,31.2666016 28.7635959,31.59375 Z M33.6691675,32.765625 C35.1974878,32.765625 35.9250268,33.78125 35.9250268,35.2216797 L35.9250268,35.6171875 C35.9250268,37.0869141 35.1974878,38.0878906 33.6691675,38.0878906 C32.1408472,38.0878906 31.4084253,37.1015625 31.4084253,35.6171875 L31.4084253,35.2265625 C31.4084253,33.8251953 32.1408472,32.765625 33.6691675,32.765625 Z M33.6691675,33.5761719 C32.6974878,33.5761719 32.3947534,34.3867188 32.3947534,35.2851562 L32.3947534,35.5634766 C32.3947534,36.4716797 32.692605,37.2675781 33.6691675,37.2675781 C34.64573,37.2675781 34.9289331,36.4716797 34.9289331,35.5634766 L34.9289331,35.2851562 C34.9289331,34.3867188 34.6408472,33.5761719 33.6691675,33.5761719 Z M37.3491531,38 L38.3305984,38 L38.3305984,34.9580078 C38.3305984,34.09375 38.7700515,33.6396484 39.5171218,33.6396484 C40.2593093,33.6396484 40.6743484,34.0400391 40.6743484,34.9238281 L40.6743484,38 L41.6655593,38 L41.6655593,34.5869141 C41.6655593,33.4003906 40.8598953,32.7705078 39.8345046,32.7705078 C39.0581374,32.7705078 38.5405593,33.15625 38.3550124,33.5517578 L38.3208328,33.5517578 L38.3208328,32.8535156 L37.3491531,32.8535156 L37.3491531,38 Z" id="option" fill="#3A99D8"></path>
                        <path d="M34.8293441,13.3261719 C34.5900863,13.7265625 34.1213363,14.0830078 33.3596175,14.0830078 C32.3635238,14.0830078 31.67993,13.4775391 31.67993,12.5253906 C31.67993,11.6171875 32.3098128,11.0166016 33.4914534,11.0166016 L34.8146956,11.0166016 L34.8146956,10.4404297 C34.8146956,9.83984375 34.4582503,9.5859375 33.8186019,9.5859375 C33.164305,9.5859375 32.8664534,9.88867188 32.8176253,10.3574219 L31.8703597,10.3574219 C31.914305,9.45410156 32.5002425,8.77050781 33.8576644,8.77050781 C35.0246566,8.77050781 35.8010238,9.25878906 35.8010238,10.4501953 L35.8010238,14 L34.8635238,14 L34.8635238,13.3261719 L34.8293441,13.3261719 Z M33.6477034,13.3017578 C34.3117659,13.3017578 34.8146956,12.8525391 34.8146956,12.2568359 L34.8146956,11.7148438 L33.6281722,11.7148438 C32.9689925,11.7148438 32.6760238,12.0322266 32.6760238,12.4765625 C32.6760238,13.0429688 33.1447738,13.3017578 33.6477034,13.3017578 Z M37.4790562,14 L38.4605015,14 L38.4605015,6.98339844 L37.4790562,6.98339844 L37.4790562,14 Z M40.4217371,8.87304688 L39.7039637,8.87304688 L39.7039637,9.66894531 L40.4119715,9.66894531 L40.4119715,12.5546875 C40.4119715,13.5800781 40.7195887,14.0390625 41.9549403,14.0390625 C42.1600184,14.0390625 42.3504481,14.0195312 42.4334559,14.0048828 L42.4334559,13.2382812 C42.3699793,13.2431641 42.2918543,13.2480469 42.1990809,13.2480469 C41.5984949,13.2480469 41.3934168,13.0917969 41.3934168,12.5058594 L41.3934168,9.66894531 L42.404159,9.66894531 L42.404159,8.87304688 L41.3934168,8.87304688 L41.3934168,7.58398438 L40.4217371,7.58398438 L40.4217371,8.87304688 Z" id="alt" fill="#3A99D8"></path>
                    </g>
                    <g id="D-key" transform="translate(119.619512, 0.000000)">
                        <use id="Rectangle" stroke-opacity="0.5" stroke="#3A99D8" mask="url(#mask-36)" stroke-width="2" xlink:href="#path-35"></use>
                        <polygon id="Triangle" fill="#3A99D8" points="28.0471545 20 28.0471545 26.6666667 20.7138211 23.3333333"></polygon>
                    </g>
                    <g id="D-key" transform="translate(171.619512, 0.000000)">
                        <use id="Rectangle" stroke-opacity="0.5" stroke="#3A99D8" mask="url(#mask-38)" stroke-width="2" xlink:href="#path-37"></use>
                        <polygon id="Triangle" fill="#3A99D8" transform="translate(24.380488, 23.333333) scale(-1, 1) translate(-24.380488, -23.333333) " points="28.0471545 20 28.0471545 26.6666667 20.7138211 23.3333333"></polygon>
                    </g>
                </g>
                <g id="D-key" transform="translate(765.619512, 213.000000)"></g>
                <g id="Group-9" transform="translate(33.000000, 188.000000)">
                    <g id="option-key" transform="translate(60.000000, 25.000000)">
                        <use id="Rectangle" stroke-opacity="0.5" stroke="#3A99D8" mask="url(#mask-40)" stroke-width="2" xlink:href="#path-39"></use>
                        <path d="M15.5786566,32.765625 C17.1069769,32.765625 17.834516,33.78125 17.834516,35.2216797 L17.834516,35.6171875 C17.834516,37.0869141 17.1069769,38.0878906 15.5786566,38.0878906 C14.0503363,38.0878906 13.3179144,37.1015625 13.3179144,35.6171875 L13.3179144,35.2265625 C13.3179144,33.8251953 14.0503363,32.765625 15.5786566,32.765625 Z M15.5786566,33.5761719 C14.6069769,33.5761719 14.3042425,34.3867188 14.3042425,35.2851562 L14.3042425,35.5634766 C14.3042425,36.4716797 14.6020941,37.2675781 15.5786566,37.2675781 C16.5552191,37.2675781 16.8384222,36.4716797 16.8384222,35.5634766 L16.8384222,35.2851562 C16.8384222,34.3867188 16.5503363,33.5761719 15.5786566,33.5761719 Z M21.7684078,38.078125 C20.9627438,38.078125 20.5037594,37.7167969 20.2840328,37.296875 L20.2498531,37.296875 L20.2498531,39.7675781 L19.263525,39.7675781 L19.263525,32.8486328 L20.2156734,32.8486328 L20.2156734,33.5761719 L20.2498531,33.5761719 C20.4549313,33.1123047 20.9773922,32.7753906 21.7977047,32.7753906 C22.9549313,32.7753906 23.7508297,33.6201172 23.7508297,35.0947266 L23.7508297,35.7636719 C23.7508297,37.2333984 22.9646969,38.078125 21.7684078,38.078125 Z M21.5242672,37.2480469 C22.2469234,37.2480469 22.7547359,36.7207031 22.7547359,35.65625 L22.7547359,35.1923828 C22.7547359,34.1572266 22.2811031,33.5957031 21.5047359,33.5957031 C20.7234859,33.5957031 20.2498531,34.2158203 20.2498531,35.1191406 L20.2498531,35.7001953 C20.2498531,36.5498047 20.7137203,37.2480469 21.5242672,37.2480469 Z M25.4386278,32.8730469 L24.7208544,32.8730469 L24.7208544,33.6689453 L25.4288622,33.6689453 L25.4288622,36.5546875 C25.4288622,37.5800781 25.7364794,38.0390625 26.9718309,38.0390625 C27.176909,38.0390625 27.3673387,38.0195312 27.4503465,38.0048828 L27.4503465,37.2382812 C27.38687,37.2431641 27.308745,37.2480469 27.2159715,37.2480469 C26.6153856,37.2480469 26.4103075,37.0917969 26.4103075,36.5058594 L26.4103075,33.6689453 L27.4210497,33.6689453 L27.4210497,32.8730469 L26.4103075,32.8730469 L26.4103075,31.5839844 L25.4386278,31.5839844 L25.4386278,32.8730469 Z M28.8647071,38 L29.8461525,38 L29.8461525,32.8535156 L28.8647071,32.8535156 L28.8647071,38 Z M28.7426368,31.59375 C28.7426368,31.9208984 29.0014259,32.1650391 29.3481056,32.1650391 C29.7191993,32.1650391 29.9682228,31.9208984 29.9682228,31.59375 C29.9682228,31.2666016 29.7143165,31.0273438 29.3481056,31.0273438 C29.0014259,31.0273438 28.7426368,31.2666016 28.7426368,31.59375 Z M33.6482084,32.765625 C35.1765287,32.765625 35.9040677,33.78125 35.9040677,35.2216797 L35.9040677,35.6171875 C35.9040677,37.0869141 35.1765287,38.0878906 33.6482084,38.0878906 C32.1198881,38.0878906 31.3874662,37.1015625 31.3874662,35.6171875 L31.3874662,35.2265625 C31.3874662,33.8251953 32.1198881,32.765625 33.6482084,32.765625 Z M33.6482084,33.5761719 C32.6765287,33.5761719 32.3737943,34.3867188 32.3737943,35.2851562 L32.3737943,35.5634766 C32.3737943,36.4716797 32.6716459,37.2675781 33.6482084,37.2675781 C34.6247709,37.2675781 34.907974,36.4716797 34.907974,35.5634766 L34.907974,35.2851562 C34.907974,34.3867188 34.6198881,33.5761719 33.6482084,33.5761719 Z M37.328194,38 L38.3096393,38 L38.3096393,34.9580078 C38.3096393,34.09375 38.7490924,33.6396484 39.4961627,33.6396484 C40.2383502,33.6396484 40.6533893,34.0400391 40.6533893,34.9238281 L40.6533893,38 L41.6446002,38 L41.6446002,34.5869141 C41.6446002,33.4003906 40.8389362,32.7705078 39.8135455,32.7705078 C39.0371783,32.7705078 38.5196002,33.15625 38.3340533,33.5517578 L38.2998737,33.5517578 L38.2998737,32.8535156 L37.328194,32.8535156 L37.328194,38 Z" id="option" fill="#3A99D8"></path>
                        <path d="M34.0517899,13.3261719 C33.8125321,13.7265625 33.3437821,14.0830078 32.5820634,14.0830078 C31.5859696,14.0830078 30.9023759,13.4775391 30.9023759,12.5253906 C30.9023759,11.6171875 31.5322587,11.0166016 32.7138993,11.0166016 L34.0371415,11.0166016 L34.0371415,10.4404297 C34.0371415,9.83984375 33.6806962,9.5859375 33.0410477,9.5859375 C32.3867509,9.5859375 32.0888993,9.88867188 32.0400712,10.3574219 L31.0928055,10.3574219 C31.1367509,9.45410156 31.7226884,8.77050781 33.0801102,8.77050781 C34.2471024,8.77050781 35.0234696,9.25878906 35.0234696,10.4501953 L35.0234696,14 L34.0859696,14 L34.0859696,13.3261719 L34.0517899,13.3261719 Z M32.8701493,13.3017578 C33.5342118,13.3017578 34.0371415,12.8525391 34.0371415,12.2568359 L34.0371415,11.7148438 L32.850618,11.7148438 C32.1914384,11.7148438 31.8984696,12.0322266 31.8984696,12.4765625 C31.8984696,13.0429688 32.3672196,13.3017578 32.8701493,13.3017578 Z M36.7015021,14 L37.6829474,14 L37.6829474,6.98339844 L36.7015021,6.98339844 L36.7015021,14 Z M39.644183,8.87304688 L38.9264096,8.87304688 L38.9264096,9.66894531 L39.6344174,9.66894531 L39.6344174,12.5546875 C39.6344174,13.5800781 39.9420346,14.0390625 41.1773861,14.0390625 C41.3824642,14.0390625 41.5728939,14.0195312 41.6559017,14.0048828 L41.6559017,13.2382812 C41.5924252,13.2431641 41.5143002,13.2480469 41.4215267,13.2480469 C40.8209408,13.2480469 40.6158627,13.0917969 40.6158627,12.5058594 L40.6158627,9.66894531 L41.6266049,9.66894531 L41.6266049,8.87304688 L40.6158627,8.87304688 L40.6158627,7.58398438 L39.644183,7.58398438 L39.644183,8.87304688 Z" id="alt" fill="#3A99D8"></path>
                    </g>
                    <g id="D-key" transform="translate(119.619512, 0.000000)">
                        <use id="Rectangle" stroke-opacity="0.5" stroke="#3A99D8" mask="url(#mask-42)" stroke-width="2" xlink:href="#path-41"></use>
                        <path d="M22.2006848,18.0024414 L20.6918958,18.0024414 L20.6918958,24.5063477 C20.6918958,26.7182617 22.2446301,28.2050781 24.5664075,28.2050781 C26.8881848,28.2050781 28.4409192,26.7402344 28.4409192,24.5283203 L28.4409192,18.0024414 L26.9321301,18.0024414 L26.9321301,24.4257812 C26.9321301,25.8979492 26.0019543,26.7915039 24.5664075,26.7915039 C23.1235364,26.7915039 22.2006848,25.8979492 22.2006848,24.4257812 L22.2006848,18.0024414 Z" id="U" fill="#3A99D8"></path>
                    </g>
                    <g id="D-key" transform="translate(171.619512, 0.000000)">
                        <use id="Rectangle" stroke-opacity="0.5" stroke="#3A99D8" mask="url(#mask-44)" stroke-width="2" xlink:href="#path-43"></use>
                        <polygon id="I" fill="#3A99D8" points="25.3171399 28 25.3171399 18.0024414 23.8083508 18.0024414 23.8083508 28"></polygon>
                    </g>
                    <g id="D-key" transform="translate(119.619512, 50.000000)">
                        <use id="Rectangle" stroke-opacity="0.5" stroke="#3A99D8" mask="url(#mask-46)" stroke-width="2" xlink:href="#path-45"></use>
                        <path d="M21.0910657,25.4291992 C21.0910657,26.996582 22.1896985,28.2050781 24.0207532,28.2050781 C25.8518079,28.2050781 27.1042493,27.1577148 27.1042493,24.9604492 L27.1042493,18.0024414 L25.5954602,18.0024414 L25.5954602,25.0483398 C25.5954602,26.2421875 24.950929,26.7475586 24.013429,26.7475586 C23.244386,26.7475586 22.5852063,26.2641602 22.5559094,25.4291992 L21.0910657,25.4291992 Z" id="J" fill="#3A99D8"></path>
                    </g>
                    <g id="D-key" transform="translate(171.619512, 50.000000)">
                        <use id="Rectangle" stroke-opacity="0.5" stroke="#3A99D8" mask="url(#mask-48)" stroke-width="2" xlink:href="#path-47"></use>
                        <polygon id="K" fill="#3A99D8" points="28.7558606 18.0024414 27.0346692 18.0024414 22.8671887 22.6606445 22.8012708 22.6606445 22.8012708 18.0024414 21.2924817 18.0024414 21.2924817 28 22.8012708 28 22.8012708 24.6308594 23.9658215 23.378418 27.0712903 28 28.9389661 28 25.086427 22.2797852"></polygon>
                    </g>
                    <polygon id="+-copy" fill="#3A99D8" points="114.82439 49.0908203 116.640797 49.0908203 116.640797 47.3964844 114.82439 47.3964844 114.82439 45.5166016 113.071461 45.5166016 113.071461 47.3964844 111.255054 47.3964844 111.255054 49.0908203 113.071461 49.0908203 113.071461 50.9853516 114.82439 50.9853516"></polygon>
                    <g id="shortcuts" transform="translate(0.000000, 25.000000)">
                        <polygon id="+" fill="#3A99D8" points="54.9809399 24.0908203 56.7973461 24.0908203 56.7973461 22.3964844 54.9809399 22.3964844 54.9809399 20.5166016 53.2280102 20.5166016 53.2280102 22.3964844 51.4116039 22.3964844 51.4116039 24.0908203 53.2280102 24.0908203 53.2280102 25.9853516 54.9809399 25.9853516"></polygon>
                        <g id="control-key">
                            <use id="Rectangle" stroke-opacity="0.5" stroke="#3A99D8" mask="url(#mask-50)" stroke-width="2" xlink:href="#path-49"></use>
                            <path d="M9.72003274,35.6904297 C9.72003274,37.1064453 10.5012827,38.0878906 11.9075327,38.0878906 C13.1526499,38.0878906 13.9241343,37.3505859 13.9534312,36.5009766 L13.0110484,36.5009766 C12.9231577,36.8916016 12.6008921,37.2333984 11.927064,37.2333984 C11.1506968,37.2333984 10.7063609,36.5791016 10.7063609,35.6953125 L10.7063609,35.1630859 C10.7063609,34.2890625 11.0872202,33.5859375 11.927064,33.5859375 C12.5813609,33.5859375 12.9329234,34.0498047 12.9768687,34.4208984 L13.9192515,34.4208984 C13.9094859,33.5664062 13.1965952,32.765625 11.9075327,32.765625 C10.5012827,32.765625 9.72003274,33.78125 9.72003274,35.1386719 L9.72003274,35.6904297 Z M17.3062683,32.765625 C18.8345886,32.765625 19.5621277,33.78125 19.5621277,35.2216797 L19.5621277,35.6171875 C19.5621277,37.0869141 18.8345886,38.0878906 17.3062683,38.0878906 C15.777948,38.0878906 15.0455261,37.1015625 15.0455261,35.6171875 L15.0455261,35.2265625 C15.0455261,33.8251953 15.777948,32.765625 17.3062683,32.765625 Z M17.3062683,33.5761719 C16.3345886,33.5761719 16.0318543,34.3867188 16.0318543,35.2851562 L16.0318543,35.5634766 C16.0318543,36.4716797 16.3297058,37.2675781 17.3062683,37.2675781 C18.2828308,37.2675781 18.566034,36.4716797 18.566034,35.5634766 L18.566034,35.2851562 C18.566034,34.3867188 18.277948,33.5761719 17.3062683,33.5761719 Z M20.9862539,38 L21.9676992,38 L21.9676992,34.9580078 C21.9676992,34.09375 22.4071524,33.6396484 23.1542227,33.6396484 C23.8964102,33.6396484 24.3114492,34.0400391 24.3114492,34.9238281 L24.3114492,38 L25.3026602,38 L25.3026602,34.5869141 C25.3026602,33.4003906 24.4969961,32.7705078 23.4716055,32.7705078 C22.6952383,32.7705078 22.1776602,33.15625 21.9921133,33.5517578 L21.9579336,33.5517578 L21.9579336,32.8535156 L20.9862539,32.8535156 L20.9862539,38 Z M27.205302,32.8730469 L26.4875286,32.8730469 L26.4875286,33.6689453 L27.1955364,33.6689453 L27.1955364,36.5546875 C27.1955364,37.5800781 27.5031536,38.0390625 28.7385052,38.0390625 C28.9435833,38.0390625 29.134013,38.0195312 29.2170208,38.0048828 L29.2170208,37.2382812 C29.1535442,37.2431641 29.0754192,37.2480469 28.9826458,37.2480469 C28.3820598,37.2480469 28.1769817,37.0917969 28.1769817,36.5058594 L28.1769817,33.6689453 L29.1877239,33.6689453 L29.1877239,32.8730469 L28.1769817,32.8730469 L28.1769817,31.5839844 L27.205302,31.5839844 L27.205302,32.8730469 Z M30.5874361,38 L31.5835298,38 L31.5835298,34.875 C31.5835298,34.1816406 31.8716158,33.6542969 32.7554048,33.6542969 C32.9263033,33.6542969 33.1069673,33.6640625 33.1948579,33.6835938 L33.1948579,32.7998047 C33.0972017,32.7851562 32.9800142,32.7753906 32.8530611,32.7753906 C32.0034517,32.7753906 31.7446626,33.1757812 31.6030611,33.4882812 L31.5688814,33.4882812 L31.5688814,32.8535156 L30.5874361,32.8535156 L30.5874361,38 Z M36.2840232,32.765625 C37.8123435,32.765625 38.5398826,33.78125 38.5398826,35.2216797 L38.5398826,35.6171875 C38.5398826,37.0869141 37.8123435,38.0878906 36.2840232,38.0878906 C34.7557029,38.0878906 34.023281,37.1015625 34.023281,35.6171875 L34.023281,35.2265625 C34.023281,33.8251953 34.7557029,32.765625 36.2840232,32.765625 Z M36.2840232,33.5761719 C35.3123435,33.5761719 35.0096092,34.3867188 35.0096092,35.2851562 L35.0096092,35.5634766 C35.0096092,36.4716797 35.3074607,37.2675781 36.2840232,37.2675781 C37.2605857,37.2675781 37.5437889,36.4716797 37.5437889,35.5634766 L37.5437889,35.2851562 C37.5437889,34.3867188 37.2557029,33.5761719 36.2840232,33.5761719 Z M39.9981885,38 L40.9796338,38 L40.9796338,30.9833984 L39.9981885,30.9833984 L39.9981885,38 Z" id="control" fill="#3A99D8"></path>
                        </g>
                    </g>
                </g>
                <g id="Group-10" transform="translate(672.000000, 213.000000)">
                    <polygon id="+" fill="#3A99D8" points="54.9527391 23.4241536 56.7691454 23.4241536 56.7691454 21.7298177 54.9527391 21.7298177 54.9527391 19.8499349 53.1998095 19.8499349 53.1998095 21.7298177 51.3834032 21.7298177 51.3834032 23.4241536 53.1998095 23.4241536 53.1998095 25.3186849 54.9527391 25.3186849"></polygon>
                    <polygon id="+" fill="#3A99D8" points="114.762495 23.4241536 116.578901 23.4241536 116.578901 21.7298177 114.762495 21.7298177 114.762495 19.8499349 113.009566 19.8499349 113.009566 21.7298177 111.193159 21.7298177 111.193159 23.4241536 113.009566 23.4241536 113.009566 25.3186849 114.762495 25.3186849"></polygon>
                    <use id="Rectangle" stroke-opacity="0.5" stroke="#3A99D8" mask="url(#mask-52)" stroke-width="2" xlink:href="#path-51"></use>
                    <path d="M9.69678184,35.3570964 C9.69678184,36.773112 10.4780318,37.7545573 11.8842818,37.7545573 C13.129399,37.7545573 13.9008834,37.0172526 13.9301803,36.1676432 L12.9877975,36.1676432 C12.8999068,36.5582682 12.5776412,36.9000651 11.9038131,36.9000651 C11.1274459,36.9000651 10.68311,36.2457682 10.68311,35.3619792 L10.68311,34.8297526 C10.68311,33.9557292 11.0639693,33.2526042 11.9038131,33.2526042 C12.55811,33.2526042 12.9096725,33.7164714 12.9536178,34.0875651 L13.8960006,34.0875651 C13.886235,33.2330729 13.1733443,32.4322917 11.8842818,32.4322917 C10.4780318,32.4322917 9.69678184,33.4479167 9.69678184,34.8053385 L9.69678184,35.3570964 Z M17.2830174,32.4322917 C18.8113377,32.4322917 19.5388768,33.4479167 19.5388768,34.8883464 L19.5388768,35.2838542 C19.5388768,36.7535807 18.8113377,37.7545573 17.2830174,37.7545573 C15.7546971,37.7545573 15.0222752,36.7682292 15.0222752,35.2838542 L15.0222752,34.8932292 C15.0222752,33.491862 15.7546971,32.4322917 17.2830174,32.4322917 Z M17.2830174,33.2428385 C16.3113377,33.2428385 16.0086034,34.0533854 16.0086034,34.9518229 L16.0086034,35.2301432 C16.0086034,36.1383464 16.3064549,36.9342448 17.2830174,36.9342448 C18.2595799,36.9342448 18.5427831,36.1383464 18.5427831,35.2301432 L18.5427831,34.9518229 C18.5427831,34.0533854 18.2546971,33.2428385 17.2830174,33.2428385 Z M20.963003,37.6666667 L21.9444483,37.6666667 L21.9444483,34.6246745 C21.9444483,33.7604167 22.3839015,33.3063151 23.1309718,33.3063151 C23.8731593,33.3063151 24.2881983,33.7067057 24.2881983,34.5904948 L24.2881983,37.6666667 L25.2794093,37.6666667 L25.2794093,34.2535807 C25.2794093,33.0670573 24.4737452,32.4371745 23.4483546,32.4371745 C22.6719874,32.4371745 22.1544093,32.8229167 21.9688624,33.2184245 L21.9346827,33.2184245 L21.9346827,32.5201823 L20.963003,32.5201823 L20.963003,37.6666667 Z M27.1820511,32.5397135 L26.4642777,32.5397135 L26.4642777,33.335612 L27.1722855,33.335612 L27.1722855,36.2213542 C27.1722855,37.2467448 27.4799027,37.7057292 28.7152543,37.7057292 C28.9203324,37.7057292 29.1107621,37.6861979 29.1937699,37.6715495 L29.1937699,36.9049479 C29.1302933,36.9098307 29.0521683,36.9147135 28.9593949,36.9147135 C28.3588089,36.9147135 28.1537308,36.7584635 28.1537308,36.172526 L28.1537308,33.335612 L29.164473,33.335612 L29.164473,32.5397135 L28.1537308,32.5397135 L28.1537308,31.250651 L27.1820511,31.250651 L27.1820511,32.5397135 Z M30.5641852,37.6666667 L31.5602789,37.6666667 L31.5602789,34.5416667 C31.5602789,33.8483073 31.8483649,33.3209635 32.7321539,33.3209635 C32.9030524,33.3209635 33.0837164,33.3307292 33.171607,33.3502604 L33.171607,32.4664714 C33.0739508,32.4518229 32.9567633,32.4420573 32.8298102,32.4420573 C31.9802008,32.4420573 31.7214117,32.8424479 31.5798102,33.1549479 L31.5456305,33.1549479 L31.5456305,32.5201823 L30.5641852,32.5201823 L30.5641852,37.6666667 Z M36.2607723,32.4322917 C37.7890926,32.4322917 38.5166317,33.4479167 38.5166317,34.8883464 L38.5166317,35.2838542 C38.5166317,36.7535807 37.7890926,37.7545573 36.2607723,37.7545573 C34.732452,37.7545573 34.0000301,36.7682292 34.0000301,35.2838542 L34.0000301,34.8932292 C34.0000301,33.491862 34.732452,32.4322917 36.2607723,32.4322917 Z M36.2607723,33.2428385 C35.2890926,33.2428385 34.9863583,34.0533854 34.9863583,34.9518229 L34.9863583,35.2301432 C34.9863583,36.1383464 35.2842098,36.9342448 36.2607723,36.9342448 C37.2373348,36.9342448 37.520538,36.1383464 37.520538,35.2301432 L37.520538,34.9518229 C37.520538,34.0533854 37.232452,33.2428385 36.2607723,33.2428385 Z M39.9749376,37.6666667 L40.9563829,37.6666667 L40.9563829,30.6500651 L39.9749376,30.6500651 L39.9749376,37.6666667 Z" id="control" fill="#3A99D8"></path>
                    <use id="Rectangle" stroke-opacity="0.5" stroke="#3A99D8" mask="url(#mask-54)" stroke-width="2" xlink:href="#path-53"></use>
                    <path d="M75.4093718,32.765625 C76.9376921,32.765625 77.6652312,33.78125 77.6652312,35.2216797 L77.6652312,35.6171875 C77.6652312,37.0869141 76.9376921,38.0878906 75.4093718,38.0878906 C73.8810515,38.0878906 73.1486296,37.1015625 73.1486296,35.6171875 L73.1486296,35.2265625 C73.1486296,33.8251953 73.8810515,32.765625 75.4093718,32.765625 Z M75.4093718,33.5761719 C74.4376921,33.5761719 74.1349577,34.3867188 74.1349577,35.2851562 L74.1349577,35.5634766 C74.1349577,36.4716797 74.4328093,37.2675781 75.4093718,37.2675781 C76.3859343,37.2675781 76.6691374,36.4716797 76.6691374,35.5634766 L76.6691374,35.2851562 C76.6691374,34.3867188 76.3810515,33.5761719 75.4093718,33.5761719 Z M81.599123,38.078125 C80.793459,38.078125 80.3344746,37.7167969 80.114748,37.296875 L80.0805683,37.296875 L80.0805683,39.7675781 L79.0942402,39.7675781 L79.0942402,32.8486328 L80.0463886,32.8486328 L80.0463886,33.5761719 L80.0805683,33.5761719 C80.2856465,33.1123047 80.8081074,32.7753906 81.6284199,32.7753906 C82.7856465,32.7753906 83.5815449,33.6201172 83.5815449,35.0947266 L83.5815449,35.7636719 C83.5815449,37.2333984 82.7954121,38.078125 81.599123,38.078125 Z M81.3549824,37.2480469 C82.0776386,37.2480469 82.5854511,36.7207031 82.5854511,35.65625 L82.5854511,35.1923828 C82.5854511,34.1572266 82.1118183,33.5957031 81.3354511,33.5957031 C80.5542011,33.5957031 80.0805683,34.2158203 80.0805683,35.1191406 L80.0805683,35.7001953 C80.0805683,36.5498047 80.5444355,37.2480469 81.3549824,37.2480469 Z M85.269343,32.8730469 L84.5515696,32.8730469 L84.5515696,33.6689453 L85.2595774,33.6689453 L85.2595774,36.5546875 C85.2595774,37.5800781 85.5671946,38.0390625 86.8025461,38.0390625 C87.0076242,38.0390625 87.1980539,38.0195312 87.2810617,38.0048828 L87.2810617,37.2382812 C87.2175852,37.2431641 87.1394602,37.2480469 87.0466867,37.2480469 C86.4461008,37.2480469 86.2410227,37.0917969 86.2410227,36.5058594 L86.2410227,33.6689453 L87.2517649,33.6689453 L87.2517649,32.8730469 L86.2410227,32.8730469 L86.2410227,31.5839844 L85.269343,31.5839844 L85.269343,32.8730469 Z M88.6954223,38 L89.6768677,38 L89.6768677,32.8535156 L88.6954223,32.8535156 L88.6954223,38 Z M88.573352,31.59375 C88.573352,31.9208984 88.8321411,32.1650391 89.1788208,32.1650391 C89.5499145,32.1650391 89.798938,31.9208984 89.798938,31.59375 C89.798938,31.2666016 89.5450317,31.0273438 89.1788208,31.0273438 C88.8321411,31.0273438 88.573352,31.2666016 88.573352,31.59375 Z M93.4789236,32.765625 C95.0072439,32.765625 95.7347829,33.78125 95.7347829,35.2216797 L95.7347829,35.6171875 C95.7347829,37.0869141 95.0072439,38.0878906 93.4789236,38.0878906 C91.9506033,38.0878906 91.2181814,37.1015625 91.2181814,35.6171875 L91.2181814,35.2265625 C91.2181814,33.8251953 91.9506033,32.765625 93.4789236,32.765625 Z M93.4789236,33.5761719 C92.5072439,33.5761719 92.2045095,34.3867188 92.2045095,35.2851562 L92.2045095,35.5634766 C92.2045095,36.4716797 92.5023611,37.2675781 93.4789236,37.2675781 C94.4554861,37.2675781 94.7386892,36.4716797 94.7386892,35.5634766 L94.7386892,35.2851562 C94.7386892,34.3867188 94.4506033,33.5761719 93.4789236,33.5761719 Z M97.1589092,38 L98.1403545,38 L98.1403545,34.9580078 C98.1403545,34.09375 98.5798076,33.6396484 99.3268779,33.6396484 C100.069065,33.6396484 100.484104,34.0400391 100.484104,34.9238281 L100.484104,38 L101.475315,38 L101.475315,34.5869141 C101.475315,33.4003906 100.669651,32.7705078 99.6442607,32.7705078 C98.8678935,32.7705078 98.3503154,33.15625 98.1647685,33.5517578 L98.1305888,33.5517578 L98.1305888,32.8535156 L97.1589092,32.8535156 L97.1589092,38 Z" id="option" fill="#3A99D8"></path>
                    <path d="M94.6391002,13.3261719 C94.3998424,13.7265625 93.9310924,14.0830078 93.1693736,14.0830078 C92.1732799,14.0830078 91.4896861,13.4775391 91.4896861,12.5253906 C91.4896861,11.6171875 92.1195689,11.0166016 93.3012095,11.0166016 L94.6244517,11.0166016 L94.6244517,10.4404297 C94.6244517,9.83984375 94.2680064,9.5859375 93.628358,9.5859375 C92.9740611,9.5859375 92.6762095,9.88867188 92.6273814,10.3574219 L91.6801158,10.3574219 C91.7240611,9.45410156 92.3099986,8.77050781 93.6674205,8.77050781 C94.8344127,8.77050781 95.6107799,9.25878906 95.6107799,10.4501953 L95.6107799,14 L94.6732799,14 L94.6732799,13.3261719 L94.6391002,13.3261719 Z M93.4574595,13.3017578 C94.121522,13.3017578 94.6244517,12.8525391 94.6244517,12.2568359 L94.6244517,11.7148438 L93.4379283,11.7148438 C92.7787486,11.7148438 92.4857799,12.0322266 92.4857799,12.4765625 C92.4857799,13.0429688 92.9545299,13.3017578 93.4574595,13.3017578 Z M97.2888123,14 L98.2702576,14 L98.2702576,6.98339844 L97.2888123,6.98339844 L97.2888123,14 Z M100.231493,8.87304688 L99.5137198,8.87304688 L99.5137198,9.66894531 L100.221728,9.66894531 L100.221728,12.5546875 C100.221728,13.5800781 100.529345,14.0390625 101.764696,14.0390625 C101.969774,14.0390625 102.160204,14.0195312 102.243212,14.0048828 L102.243212,13.2382812 C102.179735,13.2431641 102.10161,13.2480469 102.008837,13.2480469 C101.408251,13.2480469 101.203173,13.0917969 101.203173,12.5058594 L101.203173,9.66894531 L102.213915,9.66894531 L102.213915,8.87304688 L101.203173,8.87304688 L101.203173,7.58398438 L100.231493,7.58398438 L100.231493,8.87304688 Z" id="alt" fill="#3A99D8"></path>
                    <use id="Rectangle" stroke-opacity="0.5" stroke="#3A99D8" mask="url(#mask-56)" stroke-width="2" xlink:href="#path-55"></use>
                    <use id="Rectangle" stroke-opacity="0.5" stroke="#3A99D8" mask="url(#mask-58)" stroke-width="2" xlink:href="#path-57"></use>
                    <polygon id="Triangle" fill="#3A99D8" points="140.666667 14 147.333333 14 144 6.66666667"></polygon>
                    <polygon id="Triangle" fill="#3A99D8" transform="translate(144.000000, 35.676784) scale(1, -1) translate(-144.000000, -35.676784) " points="140.666667 39.3434508 147.333333 39.3434508 144 32.0101175"></polygon>
                </g>
            </g>
        </g>
    </g>
</svg>